<svg width="198" height="188" viewBox="0 0 198 188" fill="none" xmlns="http://www.w3.org/2000/svg">
<rect width="198" height="188" rx="12" fill="#F8EEE2"/>
<path d="M131.183 139.278C128.313 141.383 124.296 143.152 119.13 144.587C114.061 145.926 107.461 146.596 99.3304 146.596C91.2957 146.596 83.6435 145.926 76.3739 144.587C69.1044 143.248 63.8913 141.765 60.7348 140.139C57.5783 138.513 56 136.935 56 135.404C56 130.048 56.7652 124.5 58.2957 118.761C59.8261 112.926 61.6435 110.009 63.7478 110.009C64.1304 110.009 68.1 111.3 75.6565 113.883C83.213 116.465 88.9044 117.757 92.7304 117.757C96.5565 117.757 99.0435 117.374 100.191 116.609C101.339 115.748 101.913 114.552 101.913 113.022C101.913 111.491 100.861 110.152 98.7565 109.004C96.6522 107.761 94.0217 106.709 90.8652 105.848C87.7087 104.891 84.2652 103.552 80.5348 101.83C76.9 100.109 73.5043 98.1957 70.3478 96.0913C67.1913 93.987 64.5609 91.0217 62.4565 87.1957C60.3522 83.2739 59.3 78.8261 59.3 73.8522C59.3 52.6174 71.9739 42 97.3217 42C106.791 42 114.97 42.6217 121.857 43.8652C128.743 45.013 133.574 46.3522 136.348 47.8826C139.217 49.3174 140.652 50.7522 140.652 52.187C140.652 57.1609 139.457 62.5174 137.065 68.2565C134.77 73.9957 132.522 76.8652 130.322 76.8652C129.939 76.8652 128.696 76.4348 126.591 75.5739C120.278 72.8 115.017 71.413 110.809 71.413C106.696 71.413 103.874 71.7957 102.343 72.5609C100.909 73.3261 100.191 74.5217 100.191 76.1478C100.191 77.6783 101.243 78.9696 103.348 80.0217C105.452 80.9783 108.035 81.887 111.096 82.7478C114.252 83.513 117.648 84.7565 121.283 86.4783C125.013 88.1044 128.457 90.0652 131.613 92.3609C134.77 94.5609 137.4 97.7174 139.504 101.83C141.609 105.943 142.661 110.726 142.661 116.178C142.661 121.917 141.178 127.13 138.213 131.817C136.396 134.687 134.052 137.174 131.183 139.278Z" fill="#403B36"/>
</svg>
